<svg width="24" height="22" viewBox="0 0 24 22" fill="none" xmlns="http://www.w3.org/2000/svg">
<rect y="1.83331" width="24" height="20.1667" rx="3" fill="#33353E"/>
<rect x="1.84619" y="5.5" width="20.3077" height="14.6667" rx="2" fill="white"/>
<rect x="3.69238" width="3.69231" height="4.58333" rx="1.84615" fill="white"/>
<rect x="4.43066" width="2.30769" height="3.66667" rx="1.15385" fill="#33353E"/>
<rect x="16.6155" width="3.69231" height="4.58333" rx="1.84615" fill="white"/>
<rect x="17.3538" width="2.30769" height="3.66667" rx="1.15385" fill="#33353E"/>
<rect x="12.8213" y="15.4812" width="2.87203" height="2.85209" rx="0.888962" fill="#33353E"/>
<rect x="8.71802" y="15.4812" width="2.87203" height="2.85209" rx="0.888962" fill="#33353E"/>
<rect x="4.61548" y="15.4812" width="2.87203" height="2.85209" rx="0.888962" fill="#33353E"/>
<rect x="12.8213" y="11.4082" width="2.87203" height="2.85209" rx="0.888962" fill="#33353E"/>
<rect x="8.71802" y="11.4082" width="2.87203" height="2.85209" rx="0.888962" fill="#33353E"/>
<rect x="4.61548" y="11.4082" width="2.87203" height="2.85209" rx="0.888962" fill="#33353E"/>
<rect x="16.9238" y="11.4082" width="2.87203" height="2.85209" rx="0.888962" fill="#33353E"/>
<rect x="16.9238" y="7.33331" width="2.87203" height="2.85208" rx="0.888962" fill="#33353E"/>
<rect x="12.8213" y="7.33331" width="2.87203" height="2.85208" rx="0.888962" fill="#33353E"/>
<rect x="8.30786" y="7.33331" width="2.87203" height="2.85208" rx="0.888962" fill="#33353E"/>
</svg>
