<svg xmlns="http://www.w3.org/2000/svg" width="23" height="22" fill="none">
    <mask id="b" fill="#fff">
        <path fill-rule="evenodd"
              d="M20.406 13.433a2.167 2.167 0 0 1 .396 3.125L19.618 18h-.002c-.152.164-4.103 4.263-11.841-2.843C.06 8.07 3.752 4.11 3.923 3.934l1.305-1.336c.87-.89 2.31-.866 3.15.054l1.577 1.727c.75.822.756 2.079.013 2.907L8.764 8.63a.716.716 0 0 0 .009.969 39 39 0 0 0 2.105 2.096c.76.694 1.654 1.414 2.575 2.11a.716.716 0 0 0 .964-.097l1.21-1.349a2.167 2.167 0 0 1 2.89-.304z"
              clip-rule="evenodd"/>
    </mask>
    <path fill="url(#a)"
          d="m20.802 16.558-.945-.776zm-.396-3.125-.722.988zM7.775 15.156l-.828.9zM5.228 2.598l-.875-.855zm3.15.054-.904.825zm1.577 1.727-.904.825zm.013 2.907-.911-.816zm.91 4.408.824-.904zm4.748.664-.91-.817zm2.892-.304.721-.988zM8.764 8.63l-.91-.817zm.009.969-.892.837zm-4.85-5.664-.875-.855zm0 0 .876.854zM19.617 18l-.896-.833zm-6.164-4.197-.737.976zm.964-.096.911.816zm5.201 4.292.945.777zm2.13-.664a3.39 3.39 0 0 0-.621-4.89l-1.443 1.976c.438.32.517.942.173 1.36zm-1.185 1.441 1.184-1.441-1.89-1.553-1.184 1.44zm-13.616-2.72c4.028 3.7 7.27 4.66 9.69 4.467 2.396-.19 3.686-1.487 3.875-1.69l-1.791-1.666c.036-.04-.724.794-2.277.917-1.529.122-4.131-.422-7.842-3.83zm-3.9-12.975c-.208.213-1.403 1.542-1.379 3.886.025 2.356 1.277 5.415 5.28 9.09l1.654-1.802C4.889 10.845 4.13 8.38 4.115 6.94c-.016-1.451.72-2.19.684-2.153zm1.306-1.338L3.048 3.08l1.75 1.71 1.305-1.336zm4.928.084a3.39 3.39 0 0 0-4.928-.084l1.75 1.71a.944.944 0 0 1 1.371.024zm1.577 1.727L9.281 1.827l-1.807 1.65 1.577 1.727zm.02 4.549a3.39 3.39 0 0 0-.02-4.549l-1.807 1.65c.327.358.33.905.006 1.266zM9.676 9.446l1.204-1.343L9.057 6.47 7.853 7.812zm2.027 1.344a38 38 0 0 1-2.037-2.03L7.88 10.435c.719.765 1.46 1.513 2.172 2.163zm2.488 2.037a36 36 0 0 1-2.488-2.037l-1.649 1.808a38 38 0 0 0 2.663 2.181zm.525-1.286-1.209 1.35 1.822 1.632 1.21-1.348zm4.524-.475a3.39 3.39 0 0 0-4.524.475l1.822 1.633a.943.943 0 0 1 1.26-.132zm1.888 1.38-1.888-1.38-1.443 1.976 1.888 1.379zM7.853 7.811a1.94 1.94 0 0 0 .028 2.623L9.665 8.76c.185.198.18.496.01.686zM4.896 3.193a1.22 1.22 0 0 1-.098 1.596l-1.75-1.71a1.224 1.224 0 0 0-.099 1.596zM4.8 4.788a1.224 1.224 0 0 0 .165-1.496c-.034-.055-.065-.096-.068-.099L2.95 4.675c-.002-.003-.033-.044-.067-.099a1.22 1.22 0 0 1 .164-1.495zm15.449 12.164c.014.008-.026-.017-.07-.04a1.226 1.226 0 0 0-1.457.255l1.791 1.665a1.22 1.22 0 0 1-1.457.254c-.043-.022-.083-.047-.069-.038zm-7.532-2.173a1.94 1.94 0 0 0 2.612-.256l-1.822-1.633a.507.507 0 0 1 .684-.063zm5.957 2.444a1.22 1.22 0 0 1 1.575-.271l-1.262 2.096c.52.313 1.192.197 1.577-.272z"
          mask="url(#b)"/>
    <path stroke="url(#c)" stroke-linecap="round" d="M13.017 4.802c2.551.286 3.434 1.078 4.164 3.47"/>
    <path stroke="url(#d)" stroke-linecap="round" d="M13.018 2.15c4.24.461 5.706 1.776 6.907 5.755"/>
    <defs>
        <linearGradient id="a" x1="2.819" x2="18.512" y1="5.165" y2="19.232" gradientUnits="userSpaceOnUse">
            <stop stop-color="#2036FF"/>
            <stop offset="1" stop-color="#C348B0"/>
        </linearGradient>
        <linearGradient id="c" x1="13.301" x2="17.465" y1="4.461" y2="7.931" gradientUnits="userSpaceOnUse">
            <stop stop-color="#2036FF"/>
            <stop offset="1" stop-color="#C348B0"/>
        </linearGradient>
        <linearGradient id="d" x1="13.492" x2="20.399" y1="1.58" y2="7.336" gradientUnits="userSpaceOnUse">
            <stop stop-color="#2036FF"/>
            <stop offset="1" stop-color="#C348B0"/>
        </linearGradient>
    </defs>
</svg>