<svg width="35" height="35" viewBox="0 0 35 35" fill="none" xmlns="http://www.w3.org/2000/svg">
<mask id="path-1-outside-1_6_4616" maskUnits="userSpaceOnUse" x="10.9717" y="11.0374" width="13" height="13" fill="black">
<rect fill="white" x="10.9717" y="11.0374" width="13" height="13"/>
<path fill-rule="evenodd" clip-rule="evenodd" d="M16.651 20.3507L13.6788 17.3785C13.2883 16.988 12.6551 16.988 12.2646 17.3785C11.874 17.769 11.874 18.4022 12.2646 18.7927L16.1413 22.6694C16.5318 23.06 17.165 23.06 17.5555 22.6694C17.5813 22.6437 17.6054 22.6168 17.6278 22.589C17.6894 22.5279 17.744 22.4576 17.7895 22.3788L22.894 13.5375C23.1702 13.0592 23.0063 12.4476 22.528 12.1715C22.0497 11.8954 21.4381 12.0592 21.162 12.5375L16.651 20.3507Z"/>
</mask>
<path fill-rule="evenodd" clip-rule="evenodd" d="M16.651 20.3507L13.6788 17.3785C13.2883 16.988 12.6551 16.988 12.2646 17.3785C11.874 17.769 11.874 18.4022 12.2646 18.7927L16.1413 22.6694C16.5318 23.06 17.165 23.06 17.5555 22.6694C17.5813 22.6437 17.6054 22.6168 17.6278 22.589C17.6894 22.5279 17.744 22.4576 17.7895 22.3788L22.894 13.5375C23.1702 13.0592 23.0063 12.4476 22.528 12.1715C22.0497 11.8954 21.4381 12.0592 21.162 12.5375L16.651 20.3507Z" fill="#6EC191"/>
<path d="M13.6788 17.3785L13.3252 17.7321L13.3252 17.7321L13.6788 17.3785ZM16.651 20.3507L16.2975 20.7043L16.7582 21.165L17.084 20.6007L16.651 20.3507ZM12.2646 17.3785L12.6181 17.7321L12.6181 17.7321L12.2646 17.3785ZM12.2646 18.7927L12.6181 18.4392L12.6181 18.4392L12.2646 18.7927ZM16.1413 22.6694L15.7877 23.023L15.7877 23.023L16.1413 22.6694ZM17.5555 22.6694L17.9091 23.023L17.9091 23.023L17.5555 22.6694ZM17.6278 22.589L17.2755 22.2342L17.2559 22.2537L17.2385 22.2752L17.6278 22.589ZM17.7895 22.3788L18.2225 22.6288L18.2225 22.6288L17.7895 22.3788ZM22.894 13.5375L22.461 13.2875L22.461 13.2875L22.894 13.5375ZM22.528 12.1715L22.278 12.6045L22.278 12.6045L22.528 12.1715ZM21.162 12.5375L21.595 12.7875L21.595 12.7875L21.162 12.5375ZM13.3252 17.7321L16.2975 20.7043L17.0046 19.9972L14.0323 17.025L13.3252 17.7321ZM12.6181 17.7321C12.8134 17.5368 13.13 17.5368 13.3252 17.7321L14.0323 17.025C13.4466 16.4392 12.4968 16.4392 11.911 17.025L12.6181 17.7321ZM12.6181 18.4392C12.4229 18.2439 12.4229 17.9273 12.6181 17.7321L11.911 17.025C11.3252 17.6107 11.3252 18.5605 11.911 19.1463L12.6181 18.4392ZM16.4949 22.3159L12.6181 18.4392L11.911 19.1463L15.7877 23.023L16.4949 22.3159ZM17.202 22.3159C17.0067 22.5112 16.6901 22.5112 16.4949 22.3159L15.7877 23.023C16.3735 23.6088 17.3233 23.6088 17.9091 23.023L17.202 22.3159ZM17.2385 22.2752C17.2273 22.2892 17.2151 22.3027 17.202 22.3159L17.9091 23.023C17.9475 22.9846 17.9835 22.9445 18.017 22.9028L17.2385 22.2752ZM17.98 22.9439C18.0728 22.8518 18.1547 22.7463 18.2225 22.6288L17.3565 22.1288C17.3334 22.1689 17.306 22.204 17.2755 22.2342L17.98 22.9439ZM18.2225 22.6288L23.327 13.7875L22.461 13.2875L17.3565 22.1288L18.2225 22.6288ZM23.327 13.7875C23.7412 13.0701 23.4954 12.1527 22.778 11.7385L22.278 12.6045C22.5171 12.7426 22.5991 13.0484 22.461 13.2875L23.327 13.7875ZM22.778 11.7385C22.0605 11.3243 21.1432 11.5701 20.729 12.2875L21.595 12.7875C21.733 12.5484 22.0388 12.4664 22.278 12.6045L22.778 11.7385ZM20.729 12.2875L16.218 20.1007L17.084 20.6007L21.595 12.7875L20.729 12.2875Z" fill="#6EC191" mask="url(#path-1-outside-1_6_4616)"/>
</svg>