<svg width="35" height="35" viewBox="0 0 35 35" fill="none" xmlns="http://www.w3.org/2000/svg">
<path fill-rule="evenodd" clip-rule="evenodd" d="M24.36 11.5051C25.2927 12.4378 25.2927 13.95 24.36 14.8827C24.2667 14.976 24.1155 14.976 24.0222 14.8827L20.1174 10.9779C20.0241 10.8846 20.0241 10.7334 20.1174 10.6401C21.0501 9.70738 22.5623 9.70738 23.495 10.6401L24.36 11.5051ZM22.8633 14.9653C23.2538 15.3558 23.2538 15.9889 22.8633 16.3795L15.7588 23.4839C15.6041 23.6386 15.4029 23.7383 15.1861 23.7677L11.9141 24.2112C11.2594 24.3 10.7001 23.7407 10.7889 23.086L11.2324 19.814C11.2618 19.5972 11.3615 19.396 11.5162 19.2413L18.6206 12.1368C19.0111 11.7463 19.6443 11.7463 20.0348 12.1368L22.8633 14.9653Z" fill="#6EC191"/>
</svg>