<svg width="35" height="35" viewBox="0 0 35 35" fill="none" xmlns="http://www.w3.org/2000/svg">
<mask id="path-1-outside-1_6_4620" maskUnits="userSpaceOnUse" x="11" y="10.9999" width="13" height="13" fill="black">
<rect fill="white" x="11" y="10.9999" width="13" height="13"/>
<path fill-rule="evenodd" clip-rule="evenodd" d="M12.3498 22.6508C11.8838 22.1848 11.8838 21.4293 12.3498 20.9633L15.8126 17.5003L12.3495 14.0369C11.8835 13.5709 11.8835 12.8154 12.3495 12.3494C12.8154 11.8834 13.5709 11.8834 14.0368 12.3494L17.5 15.8128L20.9631 12.3494C21.429 11.8834 22.1845 11.8834 22.6504 12.3494C23.1164 12.8154 23.1164 13.5709 22.6505 14.0369L19.1873 17.5003L22.6501 20.9633C23.1161 21.4293 23.1161 22.1848 22.6501 22.6508C22.1842 23.1167 21.4287 23.1168 20.9628 22.6508L17.5 19.1878L14.0372 22.6508C13.5712 23.1168 12.8158 23.1167 12.3498 22.6508Z"/>
</mask>
<path fill-rule="evenodd" clip-rule="evenodd" d="M12.3498 22.6508C11.8838 22.1848 11.8838 21.4293 12.3498 20.9633L15.8126 17.5003L12.3495 14.0369C11.8835 13.5709 11.8835 12.8154 12.3495 12.3494C12.8154 11.8834 13.5709 11.8834 14.0368 12.3494L17.5 15.8128L20.9631 12.3494C21.429 11.8834 22.1845 11.8834 22.6504 12.3494C23.1164 12.8154 23.1164 13.5709 22.6505 14.0369L19.1873 17.5003L22.6501 20.9633C23.1161 21.4293 23.1161 22.1848 22.6501 22.6508C22.1842 23.1167 21.4287 23.1168 20.9628 22.6508L17.5 19.1878L14.0372 22.6508C13.5712 23.1168 12.8158 23.1167 12.3498 22.6508Z" fill="#FF8484"/>
<path d="M12.3498 20.9633L11.9962 20.6097L11.9962 20.6097L12.3498 20.9633ZM12.3498 22.6508L11.9962 23.0043L11.9962 23.0043L12.3498 22.6508ZM15.8126 17.5003L16.1661 17.8538L16.5197 17.5003L16.1661 17.1467L15.8126 17.5003ZM12.3495 14.0369L12.703 13.6834L12.703 13.6834L12.3495 14.0369ZM12.3495 12.3494L11.9959 11.9959L12.3495 12.3494ZM14.0368 12.3494L14.3904 11.9959L14.3904 11.9959L14.0368 12.3494ZM17.5 15.8128L17.1464 16.1663L17.5 16.5199L17.8535 16.1663L17.5 15.8128ZM20.9631 12.3494L21.3166 12.703L21.3166 12.703L20.9631 12.3494ZM22.6504 12.3494L23.004 11.9959L22.6504 12.3494ZM22.6505 14.0369L23.004 14.3905L23.004 14.3905L22.6505 14.0369ZM19.1873 17.5003L18.8338 17.1467L18.4803 17.5003L18.8338 17.8538L19.1873 17.5003ZM22.6501 20.9633L22.2966 21.3168L22.2966 21.3168L22.6501 20.9633ZM20.9628 22.6508L20.6092 23.0043L20.6092 23.0043L20.9628 22.6508ZM17.5 19.1878L17.8535 18.8342L17.5 18.4806L17.1464 18.8342L17.5 19.1878ZM14.0372 22.6508L14.3907 23.0043L14.3907 23.0043L14.0372 22.6508ZM11.9962 20.6097C11.335 21.271 11.335 22.3431 11.9962 23.0043L12.7034 22.2972C12.4326 22.0265 12.4327 21.5875 12.7033 21.3168L11.9962 20.6097ZM15.459 17.1467L11.9962 20.6097L12.7033 21.3168L16.1661 17.8538L15.459 17.1467ZM16.1661 17.1467L12.703 13.6834L11.9959 14.3905L15.459 17.8538L16.1661 17.1467ZM12.703 13.6834C12.4323 13.4127 12.4323 12.9737 12.703 12.703L11.9959 11.9959C11.3347 12.6571 11.3347 13.7292 11.9959 14.3905L12.703 13.6834ZM12.703 12.703C12.9737 12.4323 13.4126 12.4323 13.6833 12.703L14.3904 11.9959C13.7292 11.3346 12.6571 11.3346 11.9959 11.9959L12.703 12.703ZM13.6833 12.703L17.1464 16.1663L17.8535 15.4592L14.3904 11.9959L13.6833 12.703ZM20.6095 11.9959L17.1464 15.4592L17.8535 16.1663L21.3166 12.703L20.6095 11.9959ZM23.004 11.9959C22.3428 11.3346 21.2707 11.3346 20.6095 11.9959L21.3166 12.703C21.5873 12.4323 22.0262 12.4323 22.2969 12.703L23.004 11.9959ZM23.004 14.3905C23.6652 13.7292 23.6652 12.6571 23.004 11.9959L22.2969 12.703C22.5676 12.9737 22.5676 13.4127 22.2969 13.6834L23.004 14.3905ZM19.5409 17.8538L23.004 14.3905L22.2969 13.6834L18.8338 17.1467L19.5409 17.8538ZM18.8338 17.8538L22.2966 21.3168L23.0037 20.6097L19.5409 17.1467L18.8338 17.8538ZM22.2966 21.3168C22.5673 21.5875 22.5673 22.0265 22.2966 22.2972L23.0037 23.0043C23.6649 22.3431 23.6649 21.271 23.0037 20.6097L22.2966 21.3168ZM22.2966 22.2972C22.0258 22.5679 21.587 22.5679 21.3163 22.2972L20.6092 23.0043C21.2704 23.6656 22.3425 23.6656 23.0037 23.0043L22.2966 22.2972ZM21.3163 22.2972L17.8535 18.8342L17.1464 19.5413L20.6092 23.0043L21.3163 22.2972ZM14.3907 23.0043L17.8535 19.5413L17.1464 18.8342L13.6836 22.2972L14.3907 23.0043ZM11.9962 23.0043C12.6575 23.6656 13.7295 23.6656 14.3907 23.0043L13.6836 22.2972C13.4129 22.5679 12.9741 22.5679 12.7034 22.2972L11.9962 23.0043Z" fill="#FF8484" mask="url(#path-1-outside-1_6_4620)"/>
</svg>