<svg width="35" height="35" viewBox="0 0 35 35" fill="none" xmlns="http://www.w3.org/2000/svg">
<path fill-rule="evenodd" clip-rule="evenodd" d="M21 10.333C21.5523 10.333 22 10.7807 22 11.333C22 11.8853 22.4477 12.333 23 12.333H23.8333C24.2015 12.333 24.5 12.6315 24.5 12.9997C24.5 13.3679 24.2015 13.6663 23.8333 13.6663H11.1667C10.7985 13.6663 10.5 13.3679 10.5 12.9997C10.5 12.6315 10.7985 12.333 11.1667 12.333H12C12.5523 12.333 13 11.8853 13 11.333C13 10.7807 13.4477 10.333 14 10.333H21ZM13.0497 14.667C12.4422 14.667 11.9751 15.2041 12.0593 15.8056L13.1793 23.8056C13.2485 24.2995 13.6709 24.667 14.1697 24.667H20.8302C21.3289 24.667 21.7513 24.2995 21.8205 23.8056L22.9405 15.8056C23.0247 15.2041 22.5576 14.667 21.9502 14.667H13.0497Z" fill="#FF8484"/>
</svg>