<svg xmlns="http://www.w3.org/2000/svg" width="25" height="20" viewBox="0 0 25 20" fill="none">
    <mask id="b" fill="#fff">
        <path fill-rule="evenodd"
              d="M.328 5.08a.591.591 0 0 0-.029 1.043c2.666 1.535 10.183 5.774 11.904 5.774 1.31 0 6.22-2.456 9.734-4.306v3.074a.3.3 0 0 0-.095.074l-.74.871a.3.3 0 0 0 .016.41l1.384 1.38a.3.3 0 0 0 .422.004l1.442-1.377a.3.3 0 0 0 .014-.422l-.8-.874a.3.3 0 0 0-.086-.065V6.763c.445-.24.84-.453 1.168-.632a.593.593 0 0 0-.029-1.057C21.78 3.702 13.916 0 12.203 0 10.488 0 3.02 3.713.328 5.08m4.324 5.788c0-.45.471-.744.875-.546 1.814.889 5.877 2.84 6.599 2.84.721 0 4.784-1.952 6.599-2.84a.608.608 0 0 1 .875.546v5.22a.6.6 0 0 1-.301.52c-5.53 3.191-8.856 3.187-14.348 0a.6.6 0 0 1-.3-.52z"
              clip-rule="evenodd"/>
    </mask>
    <path fill="url(#a)"
          d="m.3 6.123-.68 1.179zM.327 5.08l.616 1.212zM21.937 7.59h1.36V5.338l-1.994 1.05zm0 3.074.61 1.216.75-.377v-.839zm-.095.074-1.036-.88zm-.74.871 1.035.881zm.016.41.96-.963zm1.384 1.38-.96.962zm.422.004-.939-.984zm1.442-1.377-.94-.983zm.014-.422-1.003.918zm-.8-.874-1.003.919zm-.086-.065h-1.36v.833l.742.379zm0-3.903-.643-1.198-.717.385v.813zm1.168-.632.65 1.195zm-.029-1.057-.589 1.225zM12.203 0v-1.36zM5.527 10.322l-.599 1.22zm13.198 0L18.126 9.1zm.574 6.286.68 1.178zm-14.348 0-.682 1.177zM.978 4.945a.769.769 0 0 1-.034 1.347L-.288 3.867c-1.38.701-1.446 2.655-.092 3.435zm11.225 5.592c.005 0-.135-.01-.486-.122a14 14 0 0 1-1.192-.455c-.944-.403-2.095-.963-3.297-1.583-2.4-1.237-4.923-2.668-6.25-3.432L-.38 7.302c1.34.77 3.906 2.226 6.362 3.493 1.226.632 2.444 1.226 3.477 1.667.515.22 1.004.41 1.437.547.4.126.872.248 1.307.248zm9.1-4.15c-1.75.922-3.83 1.986-5.63 2.816a35 35 0 0 1-2.363 1.006q-.49.181-.805.265c-.23.06-.315.063-.302.063v2.72c.606 0 1.376-.247 2.052-.497.747-.277 1.63-.658 2.56-1.087 1.862-.86 3.992-1.95 5.755-2.878zm1.994 4.278V7.591h-2.72v3.074zm-.42.956c-.092.109-.205.197-.33.26l-1.22-2.431a1.7 1.7 0 0 0-.52.408zm-.74.87.74-.87-2.07-1.763-.741.87zm-.059-1.434c.391.39.417 1.014.06 1.434l-2.072-1.762a1.66 1.66 0 0 0 .092 2.254zm1.384 1.379-1.384-1.38-1.92 1.927 1.384 1.38zm-1.477-.016a1.06 1.06 0 0 1 1.477.016l-1.92 1.926c.64.637 1.67.648 2.322.025zm1.441-1.376-1.44 1.376 1.878 1.967 1.44-1.376zm-.05 1.48a1.06 1.06 0 0 1 .05-1.48l1.879 1.967a1.66 1.66 0 0 0 .077-2.325zm-.8-.874.8.873 2.006-1.837-.8-.874zm.3.228a1.1 1.1 0 0 1-.3-.228l2.006-1.838a1.7 1.7 0 0 0-.47-.358zm-.742-5.115v3.903h2.72V6.763zm1.877-1.826c-.325.177-.718.39-1.16.628l1.286 2.396c.448-.24.846-.456 1.175-.635zm.033 1.362a.768.768 0 0 1-.033-1.362l1.301 2.389c1.41-.768 1.342-2.79-.09-3.478zM12.204 1.36c-.005 0 .04 0 .149.02q.154.028.404.095c.335.09.756.227 1.249.404.983.355 2.187.848 3.444 1.392a195 195 0 0 1 6.594 3.028l1.178-2.451A198 198 0 0 0 18.53.774 65 65 0 0 0 14.928-.68c-.53-.19-1.027-.354-1.461-.471-.404-.11-.86-.209-1.264-.209zM.943 6.292c1.34-.68 3.859-1.94 6.25-3.026a56 56 0 0 1 3.287-1.391c.472-.178.874-.313 1.195-.403q.24-.066.387-.092c.104-.02.145-.02.14-.02v-2.72c-.408 0-.86.101-1.257.212-.426.12-.91.284-1.422.476A58 58 0 0 0 6.07.79 174 174 0 0 0-.288 3.867zM6.125 9.1c-1.309-.64-2.833.314-2.833 1.768h2.72a.752.752 0 0 1-1.084.675zm6 2.701c.13 0 .157.026-.025-.028a8 8 0 0 1-.566-.2 37 37 0 0 1-1.74-.739A130 130 0 0 1 6.124 9.1l-1.197 2.443c.912.446 2.397 1.164 3.75 1.772a39 39 0 0 0 1.878.797c.272.104.533.197.763.266.186.056.498.143.807.143zm6.001-2.7c-.903.442-2.356 1.144-3.668 1.733-.658.296-1.264.556-1.74.74a8 8 0 0 1-.567.199c-.181.054-.154.028-.025.028v2.72c.309 0 .62-.087.806-.143.23-.069.492-.162.763-.267a39 39 0 0 0 1.878-.796c1.353-.608 2.839-1.326 3.75-1.772zm2.833 1.767c0-1.454-1.524-2.409-2.833-1.768l1.197 2.443a.752.752 0 0 1-1.083-.675zm0 5.22v-5.22h-2.72v5.22zm-.98 1.698c.606-.35.98-.999.98-1.699h-2.72c0-.271.144-.52.38-.657zm-15.71-.001c2.834 1.644 5.285 2.574 7.842 2.575 2.555 0 5.015-.928 7.868-2.574l-1.36-2.356c-2.677 1.545-4.645 2.21-6.508 2.21-1.862 0-3.82-.666-6.477-2.208zm-.977-1.697c0 .698.372 1.346.977 1.697l1.365-2.353a.76.76 0 0 1 .378.656zm0-5.22v5.22h2.72v-5.22z"
          mask="url(#b)"/>
    <defs>
        <linearGradient id="a" x1="0" x2="24.973" y1="10.925" y2="10.925" gradientUnits="userSpaceOnUse">
            <stop stop-color="#2036FF"/>
            <stop offset="1" stop-color="#C348B0"/>
        </linearGradient>
    </defs>
</svg>