<svg xmlns="http://www.w3.org/2000/svg" width="24" height="20" fill="none">
    <mask id="b" fill="#fff">
        <path fill-rule="evenodd"
              d="M10.569.288c.32-.238.732-.326 1.125-.273.253.031.498.123.704.276l3.154 2.35c.108.08.262.003.262-.132V.241c0-.09.073-.164.164-.164h2.499c.09 0 .164.074.164.164V4.86c0 .052.024.1.066.132l3.831 2.854c.581.433.634 1.197.118 1.706s-1.406.57-1.987.137l-.917-.683a.164.164 0 0 0-.262.131v10.424c0 .234-.19.424-.424.424h-4.805a.424.424 0 0 1-.424-.424v-6.172a.164.164 0 0 0-.164-.164H9.478a.164.164 0 0 0-.164.164v6.172c0 .234-.19.424-.424.424H4.085a.424.424 0 0 1-.424-.424V8.997a.164.164 0 0 0-.262-.131l-1.057.788c-.581.433-1.47.371-1.987-.138-.516-.509-.463-1.272.118-1.705z"
              clip-rule="evenodd"/>
    </mask>
    <path fill="url(#a)"
          d="m11.694.015-.198 1.463.008.001.009.001zm-1.125.273.882 1.185zm1.83.003.882-1.184zm10.139 7.555-.882 1.184zm.118 1.706L21.619 8.5zm-1.987.137.882-1.184zM2.342 9.654l.882 1.184zM.472 7.81l.883 1.184zm18.235-2.82-.883 1.185zM3.399 8.867l-.882-1.184zm16.353.14-.882 1.184zm-4.2-6.365-.882 1.184zm-3.66-4.09a3.02 3.02 0 0 0-2.206.553l1.765 2.369q-.024.013-.009.007l.023-.003.03.001zm1.389.556a2.96 2.96 0 0 0-1.406-.558l-.362 2.931.018.004q0 0-.015-.009zm3.153 2.35L13.28-.893l-1.764 2.368 3.154 2.35zm.857 1.052V.241h-2.954V2.51zm-1.313-.955h2.499V-1.4h-2.499zM17.164.24V4.86h2.953V.241zm6.256 6.421L19.59 3.807l-1.765 2.369 3.832 2.854zm.273 3.941c1.16-1.144 1.034-2.967-.273-3.94L21.656 9.03a.36.36 0 0 1-.12-.258.36.36 0 0 1 .083-.272zm-3.906.27c1.166.869 2.87.75 3.906-.27L21.619 8.5q.02-.015.01-.009a.1.1 0 0 1-.044.01.1.1 0 0 1-.045-.004q-.01-.005.011.008zm-.917-.683.917.683 1.764-2.368-.917-.683zm2.097 9.37V9.138h-2.953v10.424zm-1.9 1.901a1.9 1.9 0 0 0 1.9-1.9h-2.953c0-.582.47-1.053 1.052-1.053zm-4.806 0h4.805v-2.953h-4.805zm-1.9-1.9a1.9 1.9 0 0 0 1.9 1.9v-2.953c.581 0 1.053.471 1.053 1.053zm0-6.172v6.172h2.952v-6.172zM9.477 14.7h4.195v-2.953H9.478zm1.313 4.86v-6.172H7.838v6.172zm-1.9 1.9a1.9 1.9 0 0 0 1.9-1.9H7.838c0-.582.471-1.053 1.052-1.053zm-4.806 0H8.89v-2.953H4.085zm-1.9-1.9c0 1.05.85 1.9 1.9 1.9v-2.953c.581 0 1.053.471 1.053 1.053zm0-10.564v10.564h2.953V8.997zm1.039 1.84 1.057-.787-1.764-2.368-1.057.788zm-3.906-.27c1.036 1.021 2.74 1.14 3.906.27L1.46 8.47q.02-.013.01-.008a.1.1 0 0 1-.044.003.1.1 0 0 1-.044-.01c-.008-.003-.002-.002.01.01zm.273-3.94c-1.307.973-1.433 2.797-.273 3.94l2.074-2.102a.36.36 0 0 1 .084.272.36.36 0 0 1-.12.258zM9.686-.896-.409 6.627l1.764 2.368 10.096-7.522zm7.478 5.756c0 .518.245 1.006.66 1.316l1.765-2.369c.332.248.528.638.528 1.053zM5.138 8.997c0-1.35-1.539-2.122-2.621-1.315L4.28 10.05c-.865.645-2.096.027-2.096-1.053zm15.496-1.175c-1.082-.807-2.62-.034-2.62 1.315h2.953c0 1.08-1.231 1.698-2.097 1.053zM9.478 11.748a1.64 1.64 0 0 0-1.64 1.64h2.953c0 .726-.588 1.313-1.313 1.313zm8.999-10.194A1.31 1.31 0 0 1 17.164.24h2.953a1.64 1.64 0 0 0-1.64-1.64zm-3.164 11.835a1.64 1.64 0 0 0-1.64-1.64V14.7a1.313 1.313 0 0 1-1.313-1.312zM17.292.24c0 .725-.588 1.313-1.313 1.313V-1.4a1.64 1.64 0 0 0-1.64 1.64zM14.67 3.825c1.082.806 2.62.034 2.62-1.316h-2.953c0-1.08 1.231-1.697 2.097-1.052z"
          mask="url(#b)"/>
    <path fill="url(#c)" d="m15.477 2.86 2.178.444-.219 1.126 1.855 1.273-.75 1.006-3.814-2.843z"/>
    <defs>
        <linearGradient id="a" x1="0" x2="23.011" y1="11.491" y2="11.491" gradientUnits="userSpaceOnUse">
            <stop stop-color="#2036FF"/>
            <stop offset="1" stop-color="#C348B0"/>
        </linearGradient>
        <linearGradient id="c" x1="15.286" x2="19.1" y1="3.116" y2="5.959" gradientUnits="userSpaceOnUse">
            <stop stop-color="#8C42CB"/>
            <stop offset=".525" stop-color="#9E44C2"/>
            <stop offset="1" stop-color="#A545BF"/>
        </linearGradient>
    </defs>
</svg>