<svg xmlns="http://www.w3.org/2000/svg" width="68" height="68" fill="none">
    <circle cx="34" cy="34" r="34" fill="#0A66C2"/>
    <path fill="#fff" d="M13.047 13.837h41.512v39.93H13.047z"/>
    <path fill="#0A66C2"
          d="M51.818 51.397h-7.43v-11.52c0-2.748-.05-6.285-3.864-6.285-3.87 0-4.462 2.994-4.462 6.084v11.72h-7.43V27.705h7.133v3.238h.1a7.8 7.8 0 0 1 2.984-2.877 7.9 7.9 0 0 1 4.053-.95c7.53 0 8.92 4.904 8.92 11.284zM20.25 24.467c-.853 0-1.686-.25-2.395-.72a4.3 4.3 0 0 1-1.589-1.915 4.23 4.23 0 0 1-.246-2.467 4.26 4.26 0 0 1 1.18-2.186 4.33 4.33 0 0 1 2.207-1.169 4.35 4.35 0 0 1 2.492.243c.788.323 1.461.87 1.935 1.572a4.24 4.24 0 0 1-.535 5.39 4.348 4.348 0 0 1-3.049 1.25m3.715 26.93h-7.438V27.705h7.438zm31.558-42.3H12.793c-.97-.011-1.904.36-2.598 1.03a3.6 3.6 0 0 0-1.102 2.548V55.16c.011.96.407 1.878 1.101 2.55a3.68 3.68 0 0 0 2.599 1.032h42.73a3.7 3.7 0 0 0 2.605-1.03 3.62 3.62 0 0 0 1.109-2.552V12.672a3.61 3.61 0 0 0-1.11-2.55 3.69 3.69 0 0 0-2.605-1.029"/>
</svg>