<svg xmlns="http://www.w3.org/2000/svg" width="68" height="68" fill="none">
    <circle cx="34" cy="34" r="34" fill="#0A66C2"/>
    <path fill="#fff" fill-rule="evenodd"
          d="M50.652 39.009a4.01 4.01 0 0 1 .733 5.783l-2.147 2.614a.066.066 0 0 1-.085.015c.025.015.034.045.013.066-.56.579-7.862 7.59-21.888-5.29C13.25 29.316 19.6 22.014 20.127 21.454c.02-.021.05-.015.067.007a.06.06 0 0 1 .005-.08l2.367-2.422a4.01 4.01 0 0 1 5.829.099l2.917 3.194a4.01 4.01 0 0 1 .025 5.38l-2.228 2.486c-.46.513-.455 1.291.016 1.793 1.305 1.39 2.634 2.73 3.895 3.88 1.408 1.283 3.062 2.616 4.765 3.902.55.415 1.325.335 1.785-.178l2.238-2.497a4.01 4.01 0 0 1 5.351-.561z"
          clip-rule="evenodd"/>
</svg>