<svg width="40" height="40" viewBox="0 0 40 40" fill="none" xmlns="http://www.w3.org/2000/svg">
<path fill-rule="evenodd" clip-rule="evenodd" d="M6.04545 0C2.70664 0 0 2.70665 0 6.04546V33.9526C0 37.2915 2.70665 39.9981 6.04546 39.9981H33.9573C37.2961 39.9981 40.0027 37.2915 40.0027 33.9526V6.04545C40.0027 2.70664 37.2961 0 33.9573 0H6.04545ZM3 6.04546C3 4.3635 4.3635 3 6.04545 3H33.9573C35.6392 3 37.0027 4.3635 37.0027 6.04545V28.2842L29.1167 19.0845C27.8189 17.5706 25.5203 17.4451 24.0653 18.8088L17.9137 24.5745L16.3355 22.6458C15.1036 21.1404 12.8804 20.9282 11.3858 22.1734L3 29.1604V6.04546ZM19.8178 26.9014L28.0798 36.9981H33.9573C35.6392 36.9981 37.0027 35.6346 37.0027 33.9526V32.8939L26.8387 21.0367C26.6533 20.8205 26.3249 20.8025 26.1171 20.9974L19.8178 26.9014ZM14.0135 24.5455L24.2033 36.9981H6.04546C4.3635 36.9981 3 35.6346 3 33.9526V33.0651L13.3064 24.478C13.5199 24.3001 13.8375 24.3304 14.0135 24.5455ZM11.063 12.8769C11.063 11.8747 11.8755 11.0621 12.8779 11.0621C13.8803 11.0621 14.6928 11.8747 14.6928 12.8769C14.6928 13.8792 13.8803 14.6918 12.8779 14.6918C11.8755 14.6918 11.063 13.8792 11.063 12.8769ZM12.8779 8.58708C10.5087 8.58708 8.58796 10.5077 8.58796 12.8769C8.58796 15.2462 10.5087 17.1668 12.8779 17.1668C15.2471 17.1668 17.1678 15.2462 17.1678 12.8769C17.1678 10.5077 15.2471 8.58708 12.8779 8.58708Z" fill="grey"/>
</svg>