<svg width="10" height="10" viewBox="0 0 11 11" fill="none" xmlns="http://www.w3.org/2000/svg">
<path fill-rule="evenodd" clip-rule="evenodd" d="M5.00005 0C4.53981 0 4.16672 0.373096 4.16672 0.833334V4.16687H0.833333C0.373096 4.16687 0 4.53997 0 5.0002C0 5.46044 0.373096 5.83354 0.833334 5.83354H4.16672V9.16667C4.16672 9.6269 4.53981 10 5.00005 10C5.46029 10 5.83338 9.6269 5.83338 9.16667V5.83354H9.16667C9.6269 5.83354 10 5.46044 10 5.0002C10 4.53997 9.6269 4.16687 9.16667 4.16687H5.83338V0.833333C5.83338 0.373096 5.46029 0 5.00005 0Z" fill="white"/>
</svg>