<svg xmlns="http://www.w3.org/2000/svg" width="16" height="22" viewBox="0 0 16 22" fill="none">
    <mask id="b" fill="#fff">
        <path fill-rule="evenodd"
              d="M9.92 1.02v3.204c0 1.515 1.311 2.745 2.925 2.745h3.114q.021.159.022.322v11.378A2.33 2.33 0 0 1 13.65 21H2.328a2.33 2.33 0 0 1-2.331-2.33V3.33A2.33 2.33 0 0 1 2.328 1h7.29q.152 0 .303.02m1.03.4v2.806c0 .98.849 1.776 1.893 1.776h2.75a2.3 2.3 0 0 0-.31-.375l-4.033-3.96a2.3 2.3 0 0 0-.3-.248"
              clip-rule="evenodd"/>
    </mask>
    <path fill="url(#a)"
          d="M9.92 1.02h1.499V-.295l-1.303-.17zm6.039 5.949 1.484-.207-.18-1.291h-1.304zm-5.008-5.55L11.808.19 9.452-1.453v2.872zm0 2.807h1.498zm4.641 1.776V7.5h2.792l-1.543-2.326zm-.309-.375-1.05 1.07zm-4.033-3.96L12.3.599zm.169 2.557V1.02H8.422v3.204zm1.426 1.247c-.877 0-1.426-.648-1.426-1.247H8.422c0 2.43 2.072 4.243 4.423 4.243zm3.114 0h-3.114v2.996h3.114zm-1.484 1.705a1 1 0 0 1 .008.115h2.996q0-.268-.036-.529zm.008.115v11.378h2.996V7.291zm0 11.378c0 .46-.373.833-.833.833v2.996a3.83 3.83 0 0 0 3.83-3.829zm-.833.833H2.33v2.996H13.65zm-11.321 0a.83.83 0 0 1-.833-.833H-1.5a3.83 3.83 0 0 0 3.829 3.83zm-.833-.833V3.331H-1.5v15.338zm0-15.338c0-.46.373-.833.833-.833V-.498a3.83 3.83 0 0 0-3.83 3.829zm.833-.833h7.288V-.498H2.33zm7.288 0q.056 0 .108.007l.39-2.97a4 4 0 0 0-.498-.033zM9.452 1.42v2.807h2.997V1.419zm0 2.807c0 1.896 1.61 3.274 3.391 3.274V4.504a.45.45 0 0 1-.312-.115c-.066-.061-.082-.12-.082-.163zM12.843 7.5h2.75V4.504h-2.75zm1.39-.803a1 1 0 0 1 .11.133l2.498-1.656a4 4 0 0 0-.508-.616zM10.2 2.737l4.033 3.96 2.1-2.139L12.3.598zm-.107-.089a1 1 0 0 1 .107.089L12.3.598a4 4 0 0 0-.492-.408z"
          mask="url(#b)"/>
    <rect width="7.584" height=".416" x="4.208" y="14.208" fill="#7F7F7F" stroke="url(#c)" stroke-width=".416"
          rx=".208"/>
    <rect width="7.584" height=".416" x="4.208" y="16.206" fill="#7F7F7F" stroke="url(#d)" stroke-width=".416"
          rx=".208"/>
    <rect width="3.584" height=".416" x="4.208" y="10.208" fill="#7F7F7F" stroke="url(#e)" stroke-width=".416"
          rx=".208"/>
    <rect width="3.584" height=".416" x="4.208" y="12.206" fill="#7F7F7F" stroke="url(#f)" stroke-width=".416"
          rx=".208"/>
    <defs>
        <linearGradient id="a" x1="-.002" x2="15.981" y1="12.5" y2="12.5" gradientUnits="userSpaceOnUse">
            <stop stop-color="#2036FF"/>
            <stop offset="1" stop-color="#C348B0"/>
        </linearGradient>
        <linearGradient id="c" x1="4" x2="12" y1="14.479" y2="14.479" gradientUnits="userSpaceOnUse">
            <stop stop-color="#2036FF"/>
            <stop offset="1" stop-color="#C348B0"/>
        </linearGradient>
        <linearGradient id="d" x1="4" x2="12" y1="16.477" y2="16.477" gradientUnits="userSpaceOnUse">
            <stop stop-color="#2036FF"/>
            <stop offset="1" stop-color="#C348B0"/>
        </linearGradient>
        <linearGradient id="e" x1="4" x2="8" y1="10.479" y2="10.479" gradientUnits="userSpaceOnUse">
            <stop stop-color="#2036FF"/>
            <stop offset="1" stop-color="#C348B0"/>
        </linearGradient>
        <linearGradient id="f" x1="4" x2="8" y1="12.476" y2="12.476" gradientUnits="userSpaceOnUse">
            <stop stop-color="#2036FF"/>
            <stop offset="1" stop-color="#C348B0"/>
        </linearGradient>
    </defs>
</svg>